<?xml version="1.0" encoding="UTF-8"?>
<svg width="157px" height="79px" viewBox="0 0 157 79" version="1.1" xmlns="http://www.w3.org/2000/svg" xmlns:xlink="http://www.w3.org/1999/xlink">
    <!-- Generator: sketchtool 49.3 (51167) - http://www.bohemiancoding.com/sketch -->
    <title>18FA26F9-8464-4416-861E-CA89D4CB83B9</title>
    <desc>Created with sketchtool.</desc>
    <defs></defs>
    <g id="Page-1" stroke="none" stroke-width="1" fill="none" fill-rule="evenodd">
        <g id="Cook-Home-Update-2" transform="translate(-98.000000, -15.000000)">
            <g id="Logo" transform="translate(98.000000, 15.000000)">
                <g id="Icon">
                    <polygon id="Fill-1" fill="#005594" points="0 58.1305583 0 59.1245282 32.7076065 78.4998546 32.7076065 77.5040676 32.7076065 60.6022181 14.2651944 49.6747273 14.2651944 27.8248338 0 19.3755444"></polygon>
                    <polygon id="Fill-2" fill="#7AC042" points="32.7076792 0 7.26851852e-05 19.3753264 14.2649037 27.8246157 32.7076792 16.902213 51.1529986 27.8246157 65.4167394 19.3753264"></polygon>
                    <polygon id="Fill-3" fill="#F9A633" points="32.7076792 60.6023271 32.7076792 77.5041766 32.7076792 78.4999637 65.4167394 59.1246373 65.4167394 58.1306674 65.4167394 41.228091"></polygon>
                </g>
                <g id="Group-26" transform="translate(71.231481, 19.625000)" fill="#FFFFFF">
                    <path d="M15.6500289,15.1183731 L17.6147095,19.0226579 C17.6147095,19.0226579 15.3596516,20.8797644 10.9643785,20.8797644 C5.24950579,20.8797644 -0.000181712963,16.237725 -0.000181712963,10.4796046 C-0.000181712963,4.6869588 5.2244294,-0.00014537037 10.9643785,-0.00014537037 C15.3596516,-0.00014537037 17.6147095,1.85514398 17.6147095,1.85514398 L15.6500289,5.76160926 C15.6500289,5.76160926 14.033147,4.51941944 11.6785104,4.51941944 C7.04046875,4.51941944 5.00492014,7.74082685 5.00492014,10.4283616 C5.00492014,13.1358847 7.04046875,16.3587458 11.6785104,16.3587458 C14.033147,16.3587458 15.6500289,15.1183731 15.6500289,15.1183731" id="Fill-4"></path>
                    <path d="M30.0692433,16.436519 C33.7471137,16.436519 35.2695049,13.4320769 35.2695049,10.4283616 C35.2695049,7.42391944 33.6504424,4.42020417 30.0692433,4.42020417 C26.513484,4.42020417 24.8446322,7.42391944 24.8446322,10.4283616 C24.8446322,13.4320769 26.2917942,16.436519 30.0692433,16.436519 M30.0692433,-0.00014537037 C35.6838104,-0.00014537037 40.250984,4.541225 40.250984,10.4283616 C40.250984,16.3122273 35.8836947,20.8797644 30.0692433,20.8797644 C24.085072,20.8797644 19.8649701,16.3122273 19.8649701,10.4283616 C19.8649701,4.541225 24.5015581,-0.00014537037 30.0692433,-0.00014537037" id="Fill-6"></path>
                    <path d="M53.5009845,16.436519 C57.1792183,16.436519 58.7012461,13.4320769 58.7012461,10.4283616 C58.7012461,7.42391944 57.0821836,4.42020417 53.5009845,4.42020417 C49.9459521,4.42020417 48.2767368,7.42391944 48.2767368,10.4283616 C48.2767368,13.4320769 49.7238988,16.436519 53.5009845,16.436519 M53.5009845,-0.00014537037 C59.115915,-0.00014537037 63.6827252,4.541225 63.6827252,10.4283616 C63.6827252,16.3122273 59.3157993,20.8797644 53.5009845,20.8797644 C47.5120887,20.8797644 43.2948942,16.3122273 43.2948942,10.4283616 C43.2948942,4.541225 47.9332993,-0.00014537037 53.5009845,-0.00014537037" id="Fill-8"></path>
                    <polygon id="Fill-10" points="79.4149611 20.5119046 71.9516463 11.9652171 71.9516463 20.5119046 67.3430421 20.5119046 67.3430421 0.364661574 71.9516463 0.364661574 71.9516463 8.59298796 78.8999866 0.364661574 84.4912944 0.364661574 76.3483731 9.91585833 85.7683731 20.5119046"></polygon>
                    <path d="M8.94438449,33.6137 C8.94438449,32.9664384 8.18773171,32.5005264 6.67697014,32.2159639 L6.65189375,32.2159639 C5.98100949,32.0909454 5.40098171,31.9092324 4.91290069,31.675913 C4.42445625,31.4476815 4.06611829,31.1496722 3.83679653,30.7880634 C3.61038218,30.4235472 3.49517616,30.0499454 3.49517616,29.6636236 C3.49517616,28.918237 3.82262292,28.3127694 4.48078727,27.8337741 C5.13895162,27.3536884 5.89524097,27.1163713 6.75437986,27.1163713 C7.1319794,27.1163713 7.51939144,27.1767 7.91225486,27.3071699 C8.30802569,27.434369 8.60421782,27.5542995 8.79683356,27.6658713 C8.98835903,27.7778065 9.24384745,27.9358968 9.56184514,28.1405056 C9.70866921,28.2437185 9.79916227,28.3825472 9.83950255,28.5617162 C9.87693542,28.741612 9.84895162,28.906244 9.74937292,29.0585194 C9.64943079,29.2038898 9.51205579,29.3005611 9.33034282,29.3372671 C9.15008356,29.3794245 8.98327106,29.3438088 8.82881505,29.2416861 C8.42359514,28.9702069 8.06634745,28.7648713 7.75307431,28.6267694 C7.43943773,28.4901213 7.10726644,28.4217972 6.75437986,28.4217972 C6.18743542,28.4217972 5.72225023,28.5551745 5.36318542,28.8208389 C5.00157662,29.0832324 4.82422477,29.3659778 4.82422477,29.6636236 C4.82422477,29.8129917 4.85620625,29.9340125 4.92671088,30.0364986 C5.16548171,30.4322694 5.81601412,30.7259176 6.86994931,30.9214407 L6.89684282,30.9214407 C7.61715301,31.0653574 8.20844699,31.2474338 8.67290532,31.4585843 C9.73701644,31.9830079 10.2701623,32.7007741 10.2701623,33.6137 C10.2701623,34.4096028 9.91800255,35.0615889 9.21259282,35.5700218 C8.51081736,36.0770009 7.69928727,36.3332162 6.77945625,36.3332162 C5.65683356,36.3237671 4.55710671,35.8956514 3.48245625,35.0477787 C3.34544468,34.9405681 3.2673081,34.7872023 3.24550255,34.6007648 C3.22369699,34.4110565 3.2673081,34.2515125 3.37960671,34.1130472 C3.49190532,33.9767625 3.64200023,33.8971722 3.83207199,33.8786375 C4.01923634,33.8553782 4.18277801,33.9022602 4.31869931,34.0236444 C5.14512986,34.6912579 5.96538218,35.0197949 6.77945625,35.0107093 C7.42562755,35.0107093 7.9464169,34.8660657 8.34545856,34.5680565 C8.74486366,34.2747718 8.94438449,33.9545935 8.94438449,33.6137" id="Fill-12"></path>
                    <path d="M21.9705873,27.4652602 C22.1628396,27.4376398 22.337284,27.4812509 22.4899229,27.5960935 C22.6465595,27.7123898 22.7381428,27.8657556 22.7679438,28.0565542 C22.7984715,28.2480796 22.7588581,28.4217972 22.6465595,28.5784338 L20.0059067,32.178531 L20.0059067,35.6394361 C20.0059067,35.8349593 19.9386729,36.002862 19.7994808,36.1376931 C19.6642863,36.277612 19.4952933,36.3426653 19.305585,36.3426653 C19.1122424,36.3426653 18.9432493,36.277612 18.8029669,36.1376931 C18.6594137,36.002862 18.5910896,35.8349593 18.5910896,35.6394361 L18.5910896,32.178531 L15.9733326,28.5784338 C15.8559461,28.4217972 15.8087007,28.2524407 15.8337771,28.0612787 C15.8606706,27.8752046 15.9533442,27.7214755 16.1172493,27.6022718 C16.2815178,27.4812509 16.457416,27.4376398 16.6453072,27.4652602 C16.8324715,27.4983319 16.9843836,27.5931861 17.0955919,27.7541838 L19.2990433,30.7586259 L21.501041,27.7541838 C21.6198813,27.5931861 21.7790618,27.4983319 21.9705873,27.4652602" id="Fill-14"></path>
                    <path d="M34.0395988,33.6137 C34.0395988,32.9664384 33.2843998,32.5005264 31.7718211,32.2159639 L31.7463813,32.2159639 C31.0791313,32.0909454 30.4994669,31.9092324 30.0088419,31.675913 C29.5193072,31.4476815 29.1609692,31.1496722 28.9327377,30.7880634 C28.7048697,30.4235472 28.5900271,30.0499454 28.5900271,29.6636236 C28.5900271,28.918237 28.9207447,28.3127694 29.5774553,27.8337741 C30.2338025,27.3536884 30.991909,27.1163713 31.8514113,27.1163713 C32.2275572,27.1163713 32.6138789,27.1767 33.0100132,27.3071699 C33.4046938,27.434369 33.6994322,27.5542995 33.8909576,27.6658713 C34.0861174,27.7778065 34.3401521,27.9358968 34.6585132,28.1405056 C34.8035201,28.2437185 34.897284,28.3825472 34.9347169,28.5617162 C34.9721498,28.741612 34.9434391,28.906244 34.8442238,29.0585194 C34.7471891,29.2038898 34.6072701,29.3005611 34.4259206,29.3372671 C34.2445711,29.3794245 34.078122,29.3438088 33.9243928,29.2416861 C33.5213535,28.9702069 33.1611984,28.7648713 32.8475618,28.6267694 C32.5339252,28.4901213 32.2021174,28.4217972 31.8514113,28.4217972 C31.2851938,28.4217972 30.820372,28.5551745 30.4583998,28.8208389 C30.0996984,29.0832324 29.9187123,29.3659778 29.9187123,29.6636236 C29.9187123,29.8129917 29.9532377,29.9340125 30.0215618,30.0364986 C30.2614229,30.4322694 30.9105016,30.7259176 31.9655271,30.9214407 L31.9909669,30.9214407 C32.7141845,31.0653574 33.3058419,31.2474338 33.7695734,31.4585843 C34.8347748,31.9830079 35.3650132,32.7007741 35.3650132,33.6137 C35.3650132,34.4096028 35.0139438,35.0615889 34.3099877,35.5700218 C33.6060317,36.0770009 32.7945016,36.3332162 31.8746706,36.3332162 C30.7516845,36.3237671 29.6515942,35.8956514 28.580578,35.0477787 C28.4402956,34.9405681 28.362159,34.7872023 28.3403535,34.6007648 C28.3181845,34.4110565 28.3654299,34.2515125 28.4777285,34.1130472 C28.5867562,33.9767625 28.7361243,33.8971722 28.9272863,33.8786375 C29.1140873,33.8553782 29.2790826,33.9022602 29.4164576,34.0236444 C30.2403442,34.6912579 31.0602331,35.0197949 31.8746706,35.0107093 C32.5197516,35.0107093 33.0412678,34.8660657 33.4421266,34.5680565 C33.8397146,34.2747718 34.0395988,33.9545935 34.0395988,33.6137" id="Fill-16"></path>
                    <path d="M47.6503359,27.5774134 C47.7877109,27.7122444 47.8563984,27.8801472 47.8563984,28.0753069 C47.8563984,28.2708301 47.7862572,28.4438208 47.6437942,28.5833764 C47.5035118,28.7225685 47.3366993,28.7945269 47.1480813,28.7945269 L45.1005396,28.7945269 L45.1005396,35.6396542 C45.1005396,35.8351773 45.0336692,36.0030801 44.8944771,36.1379111 C44.7556484,36.2774667 44.5902896,36.3425199 44.3940396,36.3425199 C44.1945188,36.3425199 44.0255257,36.2774667 43.8881507,36.1379111 C43.7533197,36.0030801 43.682815,35.8351773 43.682815,35.6396542 L43.682815,28.7945269 L41.6487201,28.7945269 C41.450653,28.7945269 41.2842039,28.7225685 41.1464655,28.5833764 C41.0101808,28.4438208 40.940403,28.2708301 40.940403,28.0753069 C40.940403,27.8801472 41.0101808,27.7122444 41.1464655,27.5774134 C41.2842039,27.4374944 41.450653,27.3695338 41.6487201,27.3695338 L47.1480813,27.3695338 C47.3465118,27.3695338 47.5129609,27.4374944 47.6503359,27.5774134" id="Fill-18"></path>
                    <path d="M54.8407542,36.3425926 C54.6423236,36.3425926 54.4755111,36.2775394 54.3395898,36.1379838 C54.1993074,36.0027894 54.1309833,35.83525 54.1309833,35.6393634 L54.1309833,28.0753796 C54.1309833,27.8802199 54.1993074,27.7123171 54.3395898,27.5774861 C54.4755111,27.4375671 54.6423236,27.3696065 54.8407542,27.3696065 L59.0517704,27.3696065 C59.240025,27.3696065 59.4053838,27.4375671 59.5467565,27.5774861 C59.6877657,27.7123171 59.7615412,27.8802199 59.7615412,28.0753796 C59.7615412,28.2709028 59.6877657,28.4438935 59.5467565,28.5830856 C59.4053838,28.7226412 59.240025,28.7942361 59.0517704,28.7942361 L55.5614278,28.7942361 L55.5614278,31.1401505 L58.5633259,31.1401505 C58.7508537,31.1401505 58.9158491,31.2102917 59.0561315,31.3498472 C59.1993213,31.4894028 59.2716431,31.6569421 59.2716431,31.8495579 C59.2716431,32.0439907 59.2011384,32.2115301 59.0652171,32.3510856 C58.9245713,32.4910046 58.7599394,32.5658704 58.5633259,32.5658704 L55.5614278,32.5658704 L55.5614278,34.9223241 L59.0517704,34.9223241 C59.240025,34.9223241 59.4053838,34.9917384 59.5467565,35.1320208 C59.6877657,35.2759375 59.7615412,35.4394792 59.7615412,35.6313681 C59.7615412,35.8254375 59.6877657,35.9937037 59.5467565,36.1328958 C59.4053838,36.2746319 59.240025,36.3425926 59.0517704,36.3425926 L54.8789139,36.3425926 L54.8542009,36.3335069 L54.8407542,36.3425926 Z" id="Fill-20"></path>
                    <path d="M69.5073525,33.1012331 L69.4790053,33.1012331 C69.2333294,33.1012331 69.0345354,33.0034715 68.8902553,32.8072215 L67.0465956,30.2414345 L67.0465956,35.6393998 C67.0465956,35.8349229 66.976091,36.0028257 66.8347183,36.1376567 C66.6933456,36.2775757 66.5225354,36.3426289 66.3255586,36.3426289 C66.1293086,36.3426289 65.9606789,36.2775757 65.8233039,36.1376567 C65.6848387,36.0028257 65.6183317,35.8349229 65.6183317,35.6393998 L65.6183317,28.075416 C65.6183317,27.8802563 65.6848387,27.7123535 65.8233039,27.5775225 C65.9606789,27.4376035 66.1293086,27.3696428 66.3255586,27.3696428 L66.3633549,27.3696428 C66.6130285,27.3696428 66.8031002,27.4699484 66.9306627,27.665835 L69.4935424,31.2056035 L72.0578757,27.665835 C72.2021558,27.4699484 72.3958618,27.3696428 72.6353595,27.3696428 L72.6484428,27.3696428 C72.8476002,27.3790919 73.0169567,27.4510502 73.1565123,27.5913326 C73.2975215,27.7261637 73.3720238,27.8893419 73.3720238,28.075416 L73.3720238,35.6393998 C73.3720238,35.827291 73.2975215,35.99374 73.1565123,36.1329322 C73.0169567,36.2743049 72.8476002,36.3426289 72.6484428,36.3426289 C72.4518294,36.3426289 72.2835632,36.2775757 72.1465516,36.1376567 C72.0109937,36.0028257 71.9401257,35.8349229 71.9401257,35.6393998 L71.9401257,30.2414345 L70.0877437,32.8072215 C69.9409197,33.0034715 69.7479405,33.1012331 69.5073525,33.1012331" id="Fill-22"></path>
                    <path d="M84.2303546,33.6137 C84.2303546,32.9664384 83.4740653,32.5005264 81.964394,32.2159639 L81.9375005,32.2159639 C81.2687968,32.0909454 80.688769,31.9092324 80.1985074,31.675913 C79.710063,31.4476815 79.3506347,31.1496722 79.1260375,30.7880634 C78.8967157,30.4235472 78.7829634,30.0499454 78.7829634,29.6636236 C78.7829634,28.918237 79.1115005,28.3127694 79.7685745,27.8337741 C80.4263755,27.3536884 81.1848454,27.1163713 82.0410769,27.1163713 C82.4204935,27.1163713 82.803181,27.1767 83.1996787,27.3071699 C83.5939958,27.434369 83.8898245,27.5542995 84.0824403,27.6658713 C84.2761463,27.7778065 84.5294542,27.9358968 84.8481787,28.1405056 C84.9928222,28.2437185 85.0862227,28.3825472 85.124019,28.5617162 C85.1643593,28.741612 85.1334681,28.906244 85.0349796,29.0585194 C84.9368546,29.2038898 84.7969356,29.3005611 84.6159495,29.3372671 C84.4360537,29.3794245 84.2677875,29.3438088 84.1136949,29.2416861 C83.711019,28.9702069 83.3530444,28.7648713 83.0408616,28.6267694 C82.724681,28.4901213 82.3917829,28.4217972 82.0410769,28.4217972 C81.4744958,28.4217972 81.0114912,28.5551745 80.6509727,28.8208389 C80.2893639,29.0832324 80.1083778,29.3659778 80.1083778,29.6636236 C80.1083778,29.8129917 80.1429032,29.9340125 80.2108639,30.0364986 C80.4536324,30.4322694 81.100894,30.7259176 82.1581,30.9214407 L82.1824495,30.9214407 C82.906394,31.0653574 83.4958708,31.2474338 83.9606926,31.4585843 C85.0244403,31.9830079 85.5546787,32.7007741 85.5546787,33.6137 C85.5546787,34.4096028 85.2032458,35.0615889 84.5000167,35.5700218 C83.7956972,36.0770009 82.9859843,36.3332162 82.0676069,36.3332162 C80.9409866,36.3237671 79.8434403,35.8956514 78.7702435,35.0477787 C78.6332319,34.9405681 78.5547319,34.7872023 78.5314727,34.6007648 C78.5118477,34.4110565 78.5547319,34.2515125 78.667394,34.1130472 C78.7796926,33.9767625 78.9297875,33.8971722 79.116225,33.8786375 C79.3066602,33.8553782 79.4687481,33.9022602 79.6061231,34.0236444 C80.4311,34.6912579 81.2498986,35.0197949 82.0676069,35.0107093 C82.7090537,35.0107093 83.2302065,34.8660657 83.6317921,34.5680565 C84.0293801,34.2747718 84.2303546,33.9545935 84.2303546,33.6137" id="Fill-24"></path>
                </g>
            </g>
        </g>
    </g>
</svg>